<svg xmlns="http://www.w3.org/2000/svg" xmlns:xlink="http://www.w3.org/1999/xlink" viewBox="0 0 137.74 190.03"><defs><style>.cls-1{fill:url(#Degradado_sin_nombre_24);}.cls-2{fill:url(#Degradado_sin_nombre_21);}.cls-3{fill:url(#Degradado_sin_nombre_19);}.cls-4{fill:url(#Degradado_sin_nombre_25);}</style><linearGradient id="Degradado_sin_nombre_24" y1="67.78" x2="137.74" y2="67.78" gradientUnits="userSpaceOnUse"><stop offset="0" stop-color="#43c5ed"/><stop offset="0.42" stop-color="#43d4da"/><stop offset="1" stop-color="#43edb8"/></linearGradient><linearGradient id="Degradado_sin_nombre_21" y1="77.98" x2="117.94" y2="77.98" gradientUnits="userSpaceOnUse"><stop offset="0" stop-color="#158cff"/><stop offset="0.32" stop-color="#219bfa"/><stop offset="0.94" stop-color="#3fc1ee"/><stop offset="1" stop-color="#43c5ed"/></linearGradient><linearGradient id="Degradado_sin_nombre_19" y1="90.12" x2="98.26" y2="90.12" gradientUnits="userSpaceOnUse"><stop offset="0" stop-color="#0040f2"/><stop offset="0.26" stop-color="#0657f6"/><stop offset="0.75" stop-color="#117dfd"/><stop offset="1" stop-color="#158cff"/></linearGradient><linearGradient id="Degradado_sin_nombre_25" x1="39.06" y1="190.03" x2="39.06" y2="9.52" gradientUnits="userSpaceOnUse"><stop offset="0" stop-color="#0040f2"/><stop offset="0.18" stop-color="#323df2"/><stop offset="0.37" stop-color="#5d3bf2"/><stop offset="0.55" stop-color="#8039f2"/><stop offset="0.72" stop-color="#9838f2"/><stop offset="0.87" stop-color="#a737f2"/><stop offset="1" stop-color="#ac37f2"/></linearGradient></defs><g id="Camada_2" data-name="Camada 2"><g id="OBJECTS"><path class="cls-1" d="M0,9.52,4.53,128.45a7.39,7.39,0,0,0,8,7.09l118.43-9a7.4,7.4,0,0,0,6.83-7.66L133.48,7.11A7.4,7.4,0,0,0,125.53,0L0,9.52"/><polyline class="cls-2" points="0 9.52 4.83 136.12 117.94 146.43 113.11 19.83 0 9.52"/><polyline class="cls-3" points="0 9.52 4.83 136.12 98.26 170.72 93.44 44.13 0 9.52"/><path class="cls-4" d="M0,9.52,4.76,134.25a4.22,4.22,0,0,0,1.49,3.08l60,51a7.22,7.22,0,0,0,11.89-5.78L74,75.51a7.17,7.17,0,0,0-2.54-5.23L0,9.52"/></g></g></svg>